<?xml version="1.0" encoding="utf-8"?>
<!-- Generator: Adobe Illustrator 23.1.0, SVG Export Plug-In . SVG Version: 6.00 Build 0)  -->
<svg version="1.1" id="gamecube_controller" xmlns="http://www.w3.org/2000/svg" xmlns:xlink="http://www.w3.org/1999/xlink"
	 x="0px" y="0px" viewBox="0 0 659.9 507.3" style="enable-background:new 0 0 659.9 507.3;" xml:space="preserve">
<style type="text/css">
	.st0{fill:#4152D2;stroke:#000000;stroke-miterlimit:10;}
	.st1{fill:#EEECF5;stroke:#000000;stroke-miterlimit:10;}
	.st2{fill:#676BA2;stroke:#000000;stroke-miterlimit:10;}
	.st3{fill:#FF002B;stroke:#000000;stroke-miterlimit:10;}
	.st4{fill:#6AB78F;stroke:#000000;stroke-miterlimit:10;}
	.st5{fill:#F6DF44;stroke:#EFAC06;stroke-width:2;stroke-miterlimit:10;}
	.st6{fill:#F6DF44;stroke:#EFAC06;stroke-miterlimit:10;}
	.st7{fill:#7C86BF;stroke:#000000;stroke-width:2;stroke-miterlimit:10;}
	.st8{fill:#7C86BF;stroke:#000000;stroke-miterlimit:10;}
	.st9{fill:#EEECF5;stroke:#000000;stroke-width:2;stroke-miterlimit:10;}
	.st10{fill:none;stroke:#000000;stroke-miterlimit:10;}
</style>
<path id="Z_button" class="st0" d="M495.3,28.6c15.6-5.9,22.6-3.9,22.6-3.9c59,15,80,36,80,36c10,10,0,14,0,14L495.3,28.6z"/>
<path id="Left_bumper" class="st1" d="M80.9,67.7c4-21,22-31,22-31c15-9,32-7,32-7c26,6,28,16,28,16L80.9,67.7z"/>
<path id="controller_body" class="st2" d="M658.9,430.7c-7,74-41,76-41,76c-32,1-45-26-45-26c-12-25-24-104-24-104
	c-6-54-17-70-17-70l-8.1,3.9c-2.4,45.1-39.7,81-85.4,81c-47.2,0-85.5-38.3-85.5-85.5c0-26.1,11.7-49.4,30.1-65.1
	c0,0,17.9-23.2,19.9-29.2v0c-18.6-3.8-41-7.8-62-10c0,0-47.2,4.1-87.3,12.4c2,5.2,6,11,10.1,16.1c27.5,14.2,46.2,42.9,46.2,76
	c0,47.2-38.3,85.5-85.5,85.5s-85.5-38.3-85.5-85.5c0-2.3,0.1-4.5,0.3-6.8h0c-10.3-8.8-10.3-8.8-10.3-8.8s1,9-6,32c-7,23-5,23-5,23
	c-6,30-6.3,54-7,59c-11,76-34,89-34,89c-30,18-42,4-42,4c-53-53-29-197-29-197C8.1,236.3,13,191.1,19,159.4
	c4.8-25.6,10.4-42.4,15.7-53.5c0,0,0,0,0,0c3.5-6,7.6-11.7,12.1-16.9c7.7-9,16.8-16.8,26.9-23c4.2-2.6,8.5-4.9,13.1-7c0,0,0,0,0,0
	c5-1.7,9.3-3.4,13.1-5c12.2-5.2,18-9.2,18-9.2c133-50,229-44,229-44l89,9c74.8,22.9,115.1,38,136.8,47.6c0,0,0.1,0,0.1,0.1
	c0,0,0.1,0,0.1,0c0,0,0,0,0,0c2.7,1.2,5.2,2.3,7.4,3.4c0.2,0.1,0.5,0.2,0.7,0.3c5.9,3,11.6,6.6,16.8,10.5c0,0,0,0,0,0c0,0,0,0,0,0
	c24.3,18.3,41.1,45.9,45.1,77.5c18,105.5,14.8,177.1,14.8,177.1C660.6,385.6,658.9,430.7,658.9,430.7z"/>
<circle id="Start" class="st1" cx="330.4" cy="164.2" r="15.5"/>
<circle id="B_button" class="st3" cx="454.9" cy="193.7" r="23"/>
<circle id="A_button" class="st4" cx="527.4" cy="155.2" r="37.5"/>
<path id="C_stick_body" class="st5" d="M430,347.7l-24.8-10.9c-3.3-1.4-5.8-4.1-7.1-7.4l-9.8-25.2c-1.3-3.3-1.2-7,0.2-10.3
	l10.9-24.8c1.4-3.3,4.1-5.8,7.4-7.1l25.2-9.8c3.3-1.3,7-1.2,10.3,0.2l24.8,10.9c3.3,1.4,5.8,4.1,7.1,7.4l9.8,25.2
	c1.3,3.3,1.2,7-0.2,10.3L473,331c-1.4,3.3-4.1,5.8-7.4,7.1l-25.2,9.8C437,349.2,433.3,349.1,430,347.7z"/>
<circle id="C_stick" class="st6" cx="436.4" cy="298.2" r="30.5"/>
<circle id="movement_pad_body" class="st7" cx="219.4" cy="299.2" r="50.5"/>
<ellipse id="analog_body" class="st8" cx="132.4" cy="156.7" rx="76.5" ry="74"/>
<path id="movement_pad" class="st9" d="M261.4,287.1v24.3c0,2.5-2.1,4.6-4.6,4.6h-20.7v20.7c0,2.5-2.1,4.6-4.6,4.6h-24.3
	c-2.5,0-4.6-2.1-4.6-4.6V316H182c-2.5,0-4.6-2.1-4.6-4.6v-24.3c0-2.5,2.1-4.6,4.6-4.6h20.7v-20.7c0-2.5,2.1-4.6,4.6-4.6h24.3
	c2.5,0,4.6,2.1,4.6,4.6v20.7h20.7C259.4,282.5,261.4,284.6,261.4,287.1z"/>
<path id="analog_inside_1_" class="st1" d="M123.7,208.9l-29.2-12.8c-3.3-1.4-5.8-4.1-7.1-7.4L75.8,159c-1.3-3.3-1.2-7,0.2-10.3
	l12.8-29.2c1.4-3.3,4.1-5.8,7.4-7.1l29.7-11.6c3.3-1.3,7-1.2,10.3,0.2l29.2,12.8c3.3,1.4,5.8,4.1,7.1,7.4l11.6,29.7
	c1.3,3.3,1.2,7-0.2,10.3l-12.8,29.2c-1.4,3.3-4.1,5.8-7.4,7.1L134,209.2C130.6,210.5,126.9,210.4,123.7,208.9z"/>
<circle id="analog_4" class="st1" cx="129.4" cy="154.2" r="38.5"/>
<circle id="analog_3" class="st10" cx="128.4" cy="154.2" r="32.5"/>
<circle id="analog_2" class="st10" cx="128" cy="154" r="20.2"/>
<ellipse id="analog_1" class="st10" cx="128" cy="154.5" rx="13.9" ry="14.2"/>
<path id="Y_button" class="st1" d="M495.1,106.8c0,0,6.1-5.8,18.2-8.6c0,0,5.1,0,22.3-2.9c0,0,13.2-11.5,3-23c0,0-3-6.7-38.5-3.8
	c0,0-22.7,9-26.3,24.9c-3,13.4,12.1,15.3,12.1,15.3s0,0,4,0S495.1,106.8,495.1,106.8z"/>
<path id="X_button" class="st1" d="M577.5,127.4c0,0,6.3,6,9.5,18c0,0,0,5,3.2,22c0,0,12.6,13,25.2,3c0,0,7.4-3,4.2-38
	c0,0-9.8-22.4-27.4-26c-14.7-3-16.8,12-16.8,12s0,0,0,4S577.5,127.4,577.5,127.4z"/>
</svg>
