<?xml version="1.0" encoding="utf-8"?>
<!-- Generator: Adobe Illustrator 23.1.0, SVG Export Plug-In . SVG Version: 6.00 Build 0)  -->
<svg version="1.1" id="controller_x5F_square" xmlns="http://www.w3.org/2000/svg" xmlns:xlink="http://www.w3.org/1999/xlink"
	 x="0px" y="0px" viewBox="0 0 638 275" style="enable-background:new 0 0 638 275;" xml:space="preserve">
<style type="text/css">
	.st0{fill:#EFEFEF;stroke:#000000;stroke-miterlimit:10;}
	.st1{fill:#444444;stroke:#000000;stroke-miterlimit:10;}
	.st2{fill:#EFEFEF;stroke:#020202;stroke-miterlimit:10;}
	.st3{fill:#A7A894;stroke:#000000;stroke-miterlimit:10;}
	.st4{fill:#232323;stroke:#000000;stroke-miterlimit:10;}
	.st5{fill:#FF0000;stroke:#000000;stroke-miterlimit:10;}

	.st5:hover{fill:#7f0100;}
</style>
<path id="plastic" class="st0" d="M630.8,274.5H7.2c-3.7,0-6.7-3-6.7-6.7V7.2c0-3.7,3-6.7,6.7-6.7h623.6c3.7,0,6.7,3,6.7,6.7v260.6
	C637.5,271.5,634.5,274.5,630.8,274.5z"/>
<path id="inside_plastic" class="st1" d="M613.8,255H24.2c-2.3,0-4.2-1.9-4.2-4.2V47.2c0-2.3,1.9-4.2,4.2-4.2h589.6
	c2.3,0,4.2,1.9,4.2,4.2v203.6C618,253.1,616.1,255,613.8,255z"/>
<path id="movement" d="M170,148.7v35.5c0,3.7-3,6.7-6.7,6.7H133v30.3c0,3.7-3,6.7-6.7,6.7H90.7c-3.7,0-6.7-3-6.7-6.7V191H53.7
	c-3.7,0-6.7-3-6.7-6.7v-35.5c0-3.7,3-6.7,6.7-6.7H84v-30.3c0-3.7,3-6.7,6.7-6.7h35.5c3.7,0,6.7,3,6.7,6.7V142h30.3
	C167,142,170,145,170,148.7z"/>
<path id="grey_inside_box" class="st2" d="M376.6,167.2H220.4c-4.6,0-8.4,3.8-8.4,8.4v42.1c0,4.6,3.8,8.4,8.4,8.4h156.3
	c4.6,0,8.4-3.8,8.4-8.4v-42.1C385,171,381.2,167.2,376.6,167.2z"/>
<path id="inside_square_3" class="st3" d="M381.7,125.9H216.4c-4.6,0-8.4,3.8-8.4,8.4V148c0,4.6,3.8,8.4,8.4,8.4h165.3
	c4.6,0,8.4-3.8,8.4-8.4v-13.8C390.1,129.6,386.3,125.9,381.7,125.9z"/>
<path id="inside_square_2" class="st3" d="M381.7,84.9H216.4c-4.6,0-8.4,3.8-8.4,8.4V107c0,4.6,3.8,8.4,8.4,8.4h165.3
	c4.6,0,8.4-3.8,8.4-8.4V93.2C390.1,88.6,386.3,84.9,381.7,84.9z"/>
<path id="inside_square_1_1_" class="st3" d="M382.1,43.5H216.9c-4.6,0-8.4,3.8-8.4,8.4v13.8c0,4.6,3.8,8.4,8.4,8.4h165.3
	c4.6,0,8.4-3.8,8.4-8.4V51.9C390.5,47.3,386.7,43.5,382.1,43.5z"/>
<path id="Select" class="st4" d="M276.6,186.1h-35.3c-4.6,0-8.4,3.8-8.4,8.4v2.2c0,4.6,3.8,8.4,8.4,8.4h35.3c4.6,0,8.4-3.8,8.4-8.4
	v-2.2C285,189.8,281.2,186.1,276.6,186.1z"/>
<path id="Start" class="st4" d="M355.7,186h-35.3c-4.6,0-8.4,3.8-8.4,8.4v2.2c0,4.6,3.8,8.4,8.4,8.4h35.3c4.6,0,8.4-3.8,8.4-8.4
	v-2.2C364.1,189.7,360.3,186,355.7,186z"/>
<path id="B_square" class="st0" d="M476.6,161.2h-52.2c-4.6,0-8.4,3.8-8.4,8.4v52.1c0,4.6,3.8,8.4,8.4,8.4h52.2
	c4.6,0,8.4-3.8,8.4-8.4v-52.1C485,165,481.2,161.2,476.6,161.2z"/>
<path id="A_square" class="st0" d="M556.2,161.1H504c-4.6,0-8.4,3.8-8.4,8.4v52.1c0,4.6,3.8,8.4,8.4,8.4h52.2c4.6,0,8.4-3.8,8.4-8.4
	v-52.1C564.5,164.8,560.8,161.1,556.2,161.1z"/>
<circle id="B_Button" class="st5" cx="450.5" cy="196.5" r="26.5"/>
<circle id="A_button" class="st5" cx="530" cy="197" r="26.5"/>
<path id="inside_square_4" class="st3" d="M385.1,237.3h-172c-2.8,0-5,2.2-5,5v7.8c0,2.8,2.2,5,5,5h172c2.8,0,5-2.2,5-5v-7.8
	C390.1,239.5,387.9,237.3,385.1,237.3z"/>
</svg>
