<?xml version="1.0" encoding="utf-8"?>
<!-- Generator: Adobe Illustrator 23.1.0, SVG Export Plug-In . SVG Version: 6.00 Build 0)  -->
<svg version="1.1" id="SNES_controller" xmlns="http://www.w3.org/2000/svg" xmlns:xlink="http://www.w3.org/1999/xlink" x="0px"
	 y="0px" viewBox="0 0 698.5 300" style="enable-background:new 0 0 698.5 300;" xml:space="preserve">
<style type="text/css">
	.st0{fill:#F2F2F2;stroke:#111111;stroke-miterlimit:10;}
	.st1{fill:#B2B2B2;stroke:#111111;stroke-miterlimit:10;}
	.st2{fill:#3F3F3F;stroke:#111111;stroke-width:2;stroke-miterlimit:10;}
	.st3{fill:#D1D1F2;stroke:#000000;stroke-miterlimit:10;}
	.st4{fill:#433E75;stroke:#000000;stroke-miterlimit:10;}
	.st5{fill:#515151;stroke:#111111;stroke-miterlimit:10;}
	.st6{fill:none;stroke:#000000;stroke-miterlimit:10;}
</style>
<ellipse id="left_bumper" class="st0" cx="183" cy="26" rx="98.5" ry="25.5"/>
<ellipse id="right_bumper" class="st0" cx="524" cy="26" rx="98.5" ry="25.5"/>
<path id="plastic_body" class="st0" d="M698,155.5c0,79.5-65.1,144-145.4,144c-28,0-54.1-7.8-76.3-21.4
	c25.2,11.2,40.6,15.7,49.2,17.4c-9-1.8-25.1-6.7-52.1-19.1c0.9,0.6,1.9,1.2,2.8,1.8c-0.9-0.4-1.9-0.8-2.8-1.3
	c-7.9-3.6-16.7-7.8-26.6-12.7H241.4c-25.6,22.1-59,35.4-95.5,35.4c-80.3,0-145.4-64.5-145.4-144c0-48.8,24.6-92,62.1-118l-0.1-0.1
	c0,0,26.4-18.6,100.7-26.5h365.7c5.5-0.6,11.1-0.8,16.8-0.8c60.6,0,112.7,32.2,135.6,78.3c0,0,0,0,0,0
	C691.9,108.4,698,131.3,698,155.5z"/>
<circle class="st1" cx="548.5" cy="154.5" r="128"/>
<path id="movement" class="st2" d="M215,136.7v35.5c0,3.7-3,6.7-6.7,6.7H178v30.3c0,3.7-3,6.7-6.7,6.7h-35.5c-3.7,0-6.7-3-6.7-6.7
	V179H98.7c-3.7,0-6.7-3-6.7-6.7v-35.5c0-3.7,3-6.7,6.7-6.7H129V99.7c0-3.7,3-6.7,6.7-6.7h35.5c3.7,0,6.7,3,6.7,6.7V130h30.3
	C211.9,130,215,133,215,136.7z"/>
<path class="st0" d="M530.7,78.4l-66.9,50.7c-13.6,10.3-16.3,29.9-6,43.5l2.1,2.8c10.3,13.6,29.9,16.3,43.5,6l66.9-50.7
	c13.6-10.3,16.3-29.9,6-43.5l-2.1-2.8C563.8,70.8,544.3,68.1,530.7,78.4z"/>
<path class="st0" d="M595.7,129.6l-66.9,50.7c-13.6,10.3-16.3,29.9-6,43.5l2.1,2.8c10.3,13.6,29.9,16.3,43.5,6l66.9-50.7
	c13.6-10.3,16.3-29.9,6-43.5l-2.1-2.8C628.9,121.9,609.3,119.2,595.7,129.6z"/>
<circle id="Y_button" class="st3" cx="485" cy="155" r="26.5"/>
<circle id="X_button" class="st3" cx="550" cy="106" r="26.5"/>
<circle id="B_Button_2_" class="st4" cx="550" cy="205" r="26.5"/>
<circle id="A_Button" class="st4" cx="616" cy="155" r="26.5"/>
<path class="st5" d="M368.8,156.6l-27.9,21.2c-5.3,4-6.3,11.6-2.3,16.8v0c4,5.3,11.6,6.3,16.8,2.3l27.9-21.2
	c5.3-4,6.3-11.6,2.3-16.8v0C381.6,153.7,374.1,152.6,368.8,156.6z"/>
<path class="st5" d="M294,156.7l-27.9,21.2c-5.3,4-6.3,11.6-2.3,16.8l0,0c4,5.3,11.6,6.3,16.8,2.3l27.9-21.2
	c5.3-4,6.3-11.6,2.3-16.8l0,0C306.9,153.7,299.3,152.7,294,156.7z"/>
<circle class="st6" cx="153.5" cy="154.5" r="80"/>
</svg>
