<?xml version="1.0" encoding="utf-8"?>
<!-- Generator: Adobe Illustrator 23.1.0, SVG Export Plug-In . SVG Version: 6.00 Build 0)  -->
<svg version="1.1" id="Switch" xmlns="http://www.w3.org/2000/svg" xmlns:xlink="http://www.w3.org/1999/xlink" x="0px" y="0px"
	 viewBox="0 0 734.7 310.1" style="enable-background:new 0 0 734.7 310.1;" xml:space="preserve">
<style type="text/css">
	.st0{fill:#2D3134;stroke:#000000;stroke-miterlimit:10;}
	.st1{fill:#00BAE0;stroke:#000000;stroke-miterlimit:10;}
	.st2{fill:#FE5E52;stroke:#000000;stroke-miterlimit:10;}
	.st3{fill:none;stroke:#000000;stroke-miterlimit:10;}
	.st4{fill:#191919;}
	.st5{fill:#414548;stroke:#000000;stroke-miterlimit:10;}
	.st6{fill:#2F3336;stroke:#000000;stroke-miterlimit:10;}
	.st7{fill:#313538;stroke:#1E1E1E;stroke-miterlimit:10;}
	.st8{fill:#969696;stroke:#000000;stroke-miterlimit:10;}
	.st9{fill:#24282B;}
	.st10{fill:#393C41;}
	.st11{fill:#373C40;}

	.st1:hover{fill:#1edc00;}
	.st2:hover{fill:#FF3278;}
</style>
<path id="left_bumper" class="st0" d="M4.6,45.6c2-11,15-47,73-45l-22,28l-51,19V45.6z"/>
<path id="right_bumper" class="st0" d="M729.1,45.6c-2-11-15-47-73-45l22,28l51,19V45.6z"/>
<path id="left_joycon" class="st1" d="M102.6,2.6h-39c0,0-35,8-43,21s-17,24-17,33s-7,157,0,203s58,50,58,50h41V2.6z"/>
<path id="right_joycon" class="st2" d="M632.1,3.1h39c0,0,35,8,43,21s17,24,17,32.9s7,156.7,0,202.7s-58,49.9-58,49.9h-41V3.1z"/>
<path id="control" class="st0" d="M94,36.1H80.2c-0.6,0-1.1-0.5-1.1-1.1v-2.8c0-0.6,0.5-1.1,1.1-1.1H94c0.6,0,1.1,0.5,1.1,1.1V35
	C95.1,35.6,94.6,36.1,94,36.1z"/>
<circle id="left_analog_body" class="st0" cx="56.1" cy="81.5" r="23.5"/>
<circle id="left_analog_inside" class="st3" cx="56.2" cy="81.3" r="17.4"/>
<circle id="up_body" class="st0" cx="56.1" cy="143.1" r="11"/>
<circle id="right_body" class="st0" cx="80.1" cy="166.1" r="11"/>
<circle id="left_body" class="st0" cx="32.1" cy="166.1" r="11"/>
<circle id="down_body" class="st0" cx="56.1" cy="189.1" r="11"/>
<path id="up_button" class="st4" d="M55.8,139.4c0.2-0.4,0.7-0.4,0.9,0l1.6,2.7l1.6,2.7c0.2,0.4-0.1,0.8-0.5,0.8h-3.1h-3.1
	c-0.4,0-0.7-0.4-0.5-0.8l1.6-2.7L55.8,139.4z"/>
<path id="right_button" class="st4" d="M84.3,166c0.4,0.2,0.4,0.7,0,0.9l-2.7,1.6l-2.7,1.6c-0.4,0.2-0.8-0.1-0.8-0.5v-3.1v-3.1
	c0-0.4,0.4-0.7,0.8-0.5l2.7,1.6L84.3,166z"/>
<path id="left_button" class="st4" d="M27.9,166.2c-0.4-0.2-0.4-0.7,0-0.9l2.7-1.6l2.7-1.6c0.4-0.2,0.8,0.1,0.8,0.5v3.1v3.1
	c0,0.4-0.4,0.7-0.8,0.5l-2.7-1.6L27.9,166.2z"/>
<path id="_x3C_down_button" class="st4" d="M56.4,192.4c-0.2,0.4-0.7,0.4-0.9,0l-1.6-2.7l-1.6-2.7c-0.2-0.4,0.1-0.8,0.5-0.8h3.1h3.1
	c0.4,0,0.7,0.4,0.5,0.8l-1.6,2.7L56.4,192.4z"/>
<path id="screenshot_body" class="st5" d="M79.7,233.1H66.5c-1.9,0-3.4-1.5-3.4-3.4v-12.3c0-1.9,1.5-3.4,3.4-3.4h13.3
	c1.9,0,3.4,1.5,3.4,3.4v12.3C83.1,231.6,81.6,233.1,79.7,233.1z"/>
<circle id="screenshot_inside" class="st6" cx="73" cy="223.8" r="5.9"/>
<circle id="Y_button" class="st0" cx="678.6" cy="57.6" r="11.5"/>
<circle id="X_button" class="st0" cx="654.6" cy="80.6" r="11.5"/>
<circle id="B_button" class="st0" cx="678.6" cy="103.6" r="11.5"/>
<circle id="A_button" class="st0" cx="702.6" cy="80.6" r="11.5"/>
<path id="movement" class="st0" d="M656.1,31.7v3.9c0,0.3-0.2,0.5-0.5,0.5h-4.9c-0.3,0-0.5,0.2-0.5,0.5v4.9c0,0.3-0.2,0.5-0.5,0.5
	h-3.9c-0.3,0-0.5-0.2-0.5-0.5v-4.9c0-0.3-0.2-0.5-0.5-0.5h-4.9c-0.3,0-0.5-0.2-0.5-0.5v-3.9c0-0.3,0.2-0.5,0.5-0.5h4.9
	c0.3,0,0.5-0.2,0.5-0.5v-4.9c0-0.3,0.2-0.5,0.5-0.5h3.9c0.3,0,0.5,0.2,0.5,0.5v4.9c0,0.3,0.2,0.5,0.5,0.5h4.9
	C655.9,31.1,656.1,31.4,656.1,31.7z"/>
<path id="switch_body" class="st7" d="M624.3,14.5c-1.2-1.2-2.2-2.9-2.7-4.5c-0.3-1-0.5-2.2-0.6-3.2c0-0.2,0-0.4,0-0.7
	c0-1.1,0.3-2.4,0.6-3.5H113.8c0.1,1.5,0.2,3,0.4,4.5c0.4,3-2.2,5.7-4.4,7.4c-2.2,1.7-4.9,2.5-7.7,2.8v292.3h530V19.1
	C629.1,18.3,626.4,16.8,624.3,14.5z"/>
<circle id="home_button" class="st8" cx="659.6" cy="219.6" r="10.5"/>
<path id="screen_body" d="M609,300.1H127.3c-3.4,0-6.2-2.8-6.2-6.2V21.3c0-3.4,2.8-6.2,6.2-6.2H609c3.4,0,6.2,2.8,6.2,6.2V294
	C615.1,297.4,612.4,300.1,609,300.1z"/>
<rect id="screen" x="157.1" y="36.1" class="st9" width="421" height="240"/>
<circle id="home_circle" class="st10" cx="659.8" cy="219.8" r="7.3"/>
<polygon id="home_symbol" points="664.2,218.7 662.8,218.7 662.8,222.6 657.2,222.6 657.2,218.7 655.8,218.7 657.9,216.8 660,214.9 
	662.1,216.8 "/>
<rect id="window" x="658.6" y="218.8" class="st11" width="2.6" height="2"/>
<circle id="right_analog_body" class="st0" cx="679.7" cy="166.3" r="23.5"/>
<circle id="right_analog_inside" class="st3" cx="679.7" cy="166.2" r="17.4"/>
</svg>
