<?xml version="1.0" encoding="utf-8"?>
<!-- Generator: Adobe Illustrator 23.1.0, SVG Export Plug-In . SVG Version: 6.00 Build 0)  -->
<svg version="1.1" id="Layer_2" xmlns="http://www.w3.org/2000/svg" xmlns:xlink="http://www.w3.org/1999/xlink" x="0px" y="0px"
	 viewBox="0 0 118 510" style="enable-background:new 0 0 118 510;" xml:space="preserve">
<style type="text/css">
	.st0{fill:#FFFDFD;stroke:#000000;stroke-miterlimit:10;}
	.st1{fill:#39C2E2;stroke:#565656;stroke-miterlimit:10;}
	.st2{opacity:0.5;fill:#EFEFEF;stroke:#000000;stroke-miterlimit:10;}
	.st3{fill:#F9F9F9;stroke:#666666;stroke-miterlimit:10;}
	.st4{fill:#F9F9F9;stroke:#666666;stroke-width:2;stroke-miterlimit:10;}
	.st5{fill:#68BDF6;}
	.st6{fill:#FDFFFF;}
	.st7{fill:none;stroke:#FF0000;stroke-miterlimit:10;}
	.st8{display:none;opacity:0.5;fill:#EFEFEF;stroke:#000000;stroke-miterlimit:10;}
	.st9{fill:#F9F9F9;}
	.st10{fill:#FF0000;}
</style>
<path class="st0" d="M105.5,509.5h-93c-6.6,0-12-5.4-12-12v-485c0-6.6,5.4-12,12-12h93c6.6,0,12,5.4,12,12v485
	C117.5,504.1,112.1,509.5,105.5,509.5z"/>
<rect x="22.5" y="448.5" class="st1" width="7" height="7"/>
<rect x="45.5" y="448.5" class="st2" width="7" height="7"/>
<rect x="67.5" y="448.5" class="st2" width="7" height="7"/>
<rect x="89.5" y="448.5" class="st2" width="7" height="7"/>
<circle class="st2" cx="61" cy="155" r="19.5"/>
<circle class="st2" cx="26" cy="20" r="9.5"/>
<circle class="st2" cx="26" cy="240" r="9.5"/>
<circle class="st2" cx="59" cy="240" r="9.5"/>
<circle class="st2" cx="93" cy="240" r="9.5"/>
<circle class="st2" cx="60.5" cy="368.5" r="14"/>
<circle class="st2" cx="60.5" cy="415.5" r="14"/>
<path class="st3" d="M90.5,68.2v11.7c0,2.6-2.1,4.7-4.7,4.7H69.7v15.3c0,2.6-2.1,4.7-4.7,4.7H53.4c-2.6,0-4.7-2.1-4.7-4.7V84.5H33.2
	c-2.6,0-4.7-2.1-4.7-4.7V68.2c0-2.6,2.1-4.7,4.7-4.7h15.6V47.1c0-2.6,2.1-4.7,4.7-4.7h11.7c2.6,0,4.7,2.1,4.7,4.7v16.4h16.1
	C88.4,63.5,90.5,65.6,90.5,68.2z"/>
<line class="st3" x1="59.5" y1="50.5" x2="59.5" y2="60.5"/>
<line class="st3" x1="43" y1="73.5" x2="33" y2="73.5"/>
<line class="st3" x1="85" y1="73.5" x2="75" y2="73.5"/>
<line class="st3" x1="59.5" y1="90" x2="59.5" y2="100"/>
<line class="st3" x1="31" y1="240.5" x2="21" y2="240.5"/>
<line class="st4" x1="98" y1="239.5" x2="88" y2="239.5"/>
<line class="st4" x1="93" y1="235" x2="93" y2="245"/>
<polygon class="st5" points="65.5,239.2 63.4,239.2 63.4,245 55.1,245 55.1,239.2 53,239.2 56.1,236.4 59.2,233.6 62.4,236.4 "/>
<rect x="58" y="240" class="st6" width="3" height="2"/>
<circle class="st7" cx="26" cy="20" r="5.5"/>
<rect x="25" y="12" class="st8" width="1" height="9"/>
<rect x="25" y="12" class="st9" width="2" height="9"/>
<rect x="25.5" y="12" class="st10" width="1" height="8.5"/>
</svg>
