<?xml version="1.0" encoding="utf-8"?>
<!-- Generator: Adobe Illustrator 23.1.0, SVG Export Plug-In . SVG Version: 6.00 Build 0)  -->
<svg version="1.1" id="wii_u_controller" xmlns="http://www.w3.org/2000/svg" xmlns:xlink="http://www.w3.org/1999/xlink" x="0px"
	 y="0px" viewBox="0 0 730 387" style="enable-background:new 0 0 730 387;" xml:space="preserve">
<style type="text/css">
	.st0{fill:#FFFFFF;stroke:#595959;stroke-width:2;stroke-miterlimit:10;}
	.st1{fill:#494E54;}
	.st2{fill:#1C1C1C;}
	.st3{fill:#F9F9F9;stroke:#000000;stroke-miterlimit:10;}
	.st4{fill:#F0F0F0;stroke:#676868;stroke-width:3;stroke-miterlimit:10;}
	.st5{fill:#F9F9F9;}
	.st6{fill:none;stroke:#EDEDED;stroke-width:8;stroke-miterlimit:10;}
	.st7{fill:#F9F9F9;stroke:#666666;stroke-miterlimit:10;}
	.st8{opacity:0.5;fill:none;stroke:#2994FF;stroke-width:3;stroke-miterlimit:10;}
	.st9{fill:#767C84;}
	.st10{fill:#FDFFFF;}
	.st11{fill:none;stroke:#212323;stroke-miterlimit:10;}
	.st12{fill:#3A3A3A;}
	.st13{fill:#828282;}
	.st14{fill:none;}
	.st15{fill:#66BAFF;}
	.st16{font-family:'Arial-BoldMT';}
	.st17{font-size:12px;}
	.st18{fill:#666666;}
	.st19{fill:#161616;}
</style>
<path id="wii_u_controller_1_" class="st0" d="M630.9,386H99.1C45.1,386,1,341.9,1,287.9V99.1C1,45.1,45.1,1,99.1,1h531.9
	C684.9,1,729,45.1,729,99.1v188.9C729,341.9,684.9,386,630.9,386z"/>
<path id="camera_body" class="st1" d="M456.5,47.5h-183c-6.6,0-12-5.4-12-12v-3c0-6.6,5.4-12,12-12h183c6.6,0,12,5.4,12,12v3
	C468.5,42.1,463.1,47.5,456.5,47.5z"/>
<circle id="camera_outside" class="st2" cx="364.5" cy="33.5" r="10"/>
<circle id="camera_inside" class="st1" cx="364.5" cy="33.5" r="7.5"/>
<circle id="left_analog_body" class="st3" cx="64.5" cy="93.5" r="40"/>
<circle id="left_analog_stick" class="st4" cx="64.1" cy="92.5" r="26"/>
<circle id="left_analog_stick_ring" class="st5" cx="64.5" cy="93.5" r="18"/>
<rect id="screen" x="165" y="81" width="398" height="227"/>
<path id="screen_plastic" class="st6" d="M563.6,312H165c-1.9,0-3.4-1.5-3.4-3.4V81.4c0-1.9,1.5-3.4,3.4-3.4h398.6
	c1.9,0,3.4,1.5,3.4,3.4v227.2C567,310.5,565.5,312,563.6,312z"/>
<path id="movement" class="st7" d="M124.5,169.6v11.7c0,2.6-2.1,4.7-4.7,4.7h-16.1v15.3c0,2.6-2.1,4.7-4.7,4.7H87.4
	c-2.6,0-4.7-2.1-4.7-4.7v-15.3H67.2c-2.6,0-4.7-2.1-4.7-4.7v-11.7c0-2.6,2.1-4.7,4.7-4.7h15.6v-16.4c0-2.6,2.1-4.7,4.7-4.7h11.7
	c2.6,0,4.7,2.1,4.7,4.7v16.4h16.1C122.4,164.9,124.5,167,124.5,169.6z"/>
<circle id="X_button" class="st7" cx="606.5" cy="175.5" r="14"/>
<circle id="Y_button" class="st7" cx="638.5" cy="147.5" r="14"/>
<circle id="B_button" class="st7" cx="638.5" cy="205.5" r="14"/>
<circle id="A_button" class="st7" cx="668.5" cy="175.5" r="14"/>
<circle id="start" class="st7" cx="607.5" cy="249.5" r="9"/>
<circle id="select" class="st7" cx="606.5" cy="286.5" r="9"/>
<circle id="power" class="st7" cx="555.5" cy="349.5" r="9"/>
<circle id="home_colour" class="st8" cx="364.5" cy="348.5" r="15"/>
<polygon id="home_symbol" class="st9" points="373,349 370.2,349 370.2,356.8 358.9,356.8 358.9,349 356.1,349 360.3,345.3 
	364.5,341.5 368.8,345.2 "/>
<rect id="window" x="361.9" y="349.1" class="st10" width="5.1" height="3.9"/>
<path id="tv_outline" class="st11" d="M523.9,359h-10.8c-2.3,0-4.1-1.8-4.1-4.1v-10.8c0-2.3,1.8-4.1,4.1-4.1h10.8
	c2.3,0,4.1,1.8,4.1,4.1v10.8C528,357.2,526.2,359,523.9,359z"/>
<circle id="battery" cx="481" cy="350" r="3"/>
<circle id="microphone" class="st12" cx="321.5" cy="349.5" r="2.5"/>
<circle id="camera_inside_1_" class="st13" cx="364.5" cy="33.5" r="4.5"/>
<circle id="right_analog_body" class="st3" cx="668.7" cy="92.8" r="40"/>
<circle id="right_analog_stick" class="st4" cx="668.3" cy="91.8" r="26"/>
<circle id="right_analog_stick_ring" class="st5" cx="668.7" cy="92.8" r="18"/>
<rect x="511" y="344.9" class="st14" width="17" height="12.8"/>
<text transform="matrix(1 0 0 1 511 353.4932)"><tspan x="0" y="0" class="st15 st16 st17">TV</tspan><tspan x="15.3" y="0" class="st16 st17"> </tspan></text>
<polygon id="plus_symbol" class="st18" points="613,249 613,250 608,250 608,255 607,255 607,250 602,250 602,249 607,249 607,244 
	608,244 608,249 "/>
<rect id="minus" x="606" y="281" transform="matrix(-1.836970e-16 1 -1 -1.836970e-16 893 -320)" class="st18" width="1" height="11"/>
<rect id="movement_right" x="113" y="170" transform="matrix(-1.836970e-16 1 -1 -1.836970e-16 289 62)" class="st18" width="1" height="11"/>
<rect id="movement_left" x="72" y="170" transform="matrix(-1.836970e-16 1 -1 -1.836970e-16 248 103)" class="st18" width="1" height="11"/>
<rect id="movement_up" x="93" y="149" class="st18" width="1" height="11"/>
<rect id="movement_down" x="93" y="190" class="st18" width="1" height="11"/>
<path id="right_speaker" class="st19" d="M613,356h-13c-1.7,0-3-1.3-3-3l0,0c0-1.6,1.3-3,3-3h13c1.7,0,3,1.4,3,3l0,0
	C616,354.6,614.7,356,613,356z"/>
<path id="left_speaker" class="st19" d="M140,356h-13c-1.7,0-3-1.4-3-3l0,0c0-1.6,1.3-3,3-3h13c1.6,0,3,1.4,3,3l0,0
	C143,354.6,141.6,356,140,356z"/>
</svg>
